<svg width="131" height="38" viewBox="0 0 131 38" fill="none" xmlns="http://www.w3.org/2000/svg">
<path d="M44.4368 12.9451C44.4403 12.9521 44.4429 12.9601 44.4464 12.9671C44.3623 12.7872 44.2355 12.6307 44.0769 12.5113C44.0639 12.5018 44.0509 12.4923 44.0374 12.4833C44.0239 12.4743 44 12.4573 43.98 12.4453C43.96 12.4334 43.9301 12.4164 43.9061 12.4029L43.8941 12.3959H43.8891C43.8557 12.3789 43.8207 12.3635 43.7853 12.3495L43.7723 12.3445C43.7023 12.3178 43.6299 12.2977 43.5561 12.2846L43.5322 12.2806C43.5007 12.2756 43.4687 12.2716 43.4363 12.2691H43.4238C43.3958 12.2691 43.3679 12.2661 43.3394 12.2661H43.3194H43.293C42.9824 12.2763 42.6877 12.4061 42.4706 12.6286L42.4566 12.6431C42.4332 12.668 42.4102 12.693 42.3893 12.72L42.3778 12.7349C42.3588 12.7594 42.3408 12.7849 42.3238 12.8103L42.3079 12.8348C42.2892 12.8644 42.2726 12.8947 42.258 12.9257L42.254 12.9332L36.8541 23.5641C36.7815 23.7072 36.7377 23.8632 36.7253 24.0231C36.7129 24.1831 36.7322 24.344 36.782 24.4965C36.8318 24.6491 36.9111 24.7903 37.0155 24.9122C37.1199 25.034 37.2473 25.1341 37.3903 25.2068C37.5334 25.2794 37.6894 25.3232 37.8494 25.3356C38.0093 25.3479 38.1702 25.3287 38.3227 25.2789C38.4753 25.2291 38.6165 25.1497 38.7384 25.0454C38.8602 24.941 38.9603 24.8136 39.033 24.6706L39.8863 22.9809H46.793L47.6498 24.6681C47.7224 24.8111 47.8226 24.9385 47.9445 25.0429C48.0663 25.1472 48.2076 25.2266 48.3601 25.2764C48.5126 25.3262 48.6735 25.3454 48.8335 25.3331C48.9934 25.3207 49.1494 25.2769 49.2925 25.2043C49.4356 25.1316 49.5629 25.0315 49.6673 24.9097C49.7717 24.7878 49.851 24.6466 49.9008 24.494C49.9506 24.3415 49.9699 24.1806 49.9575 24.0206C49.9451 23.8607 49.9014 23.7047 49.8287 23.5616L44.4368 12.9451ZM44.4868 13.06L44.4963 13.0864L44.4868 13.06ZM44.4913 13.9013V13.9068V13.9013ZM45.5543 20.5389H41.13L43.3419 16.1841L45.5538 20.5389H45.5543Z" fill="#575756"/>
<path d="M58.885 22.8939H53.8142V13.4847C53.8142 13.1606 53.6854 12.8498 53.4562 12.6206C53.227 12.3914 52.9162 12.2627 52.5921 12.2627C52.268 12.2627 51.9572 12.3914 51.7281 12.6206C51.4989 12.8498 51.3701 13.1606 51.3701 13.4847V24.1157C51.3701 24.2762 51.4018 24.4351 51.4632 24.5833C51.5246 24.7316 51.6146 24.8663 51.7281 24.9798C51.8416 25.0932 51.9764 25.1832 52.1247 25.2446C52.273 25.306 52.4319 25.3375 52.5924 25.3374H58.8835C59.2076 25.3374 59.5184 25.2087 59.7476 24.9795C59.9768 24.7503 60.1055 24.4395 60.1055 24.1154C60.1055 23.7913 59.9768 23.4805 59.7476 23.2513C59.5184 23.0222 59.2076 22.8934 58.8835 22.8934L58.885 22.8939Z" fill="#575756"/>
<path d="M69.01 22.8939H63.9392V13.4847C63.9392 13.1606 63.8104 12.8498 63.5813 12.6206C63.3521 12.3914 63.0412 12.2627 62.7171 12.2627C62.393 12.2627 62.0822 12.3914 61.8531 12.6206C61.6239 12.8498 61.4951 13.1606 61.4951 13.4847V24.1157C61.4951 24.2762 61.5268 24.4351 61.5882 24.5833C61.6496 24.7316 61.7397 24.8663 61.8532 24.9798C61.9667 25.0932 62.1014 25.1832 62.2497 25.2446C62.398 25.306 62.5569 25.3375 62.7174 25.3374H69.0085C69.3326 25.3374 69.6434 25.2087 69.8726 24.9795C70.1018 24.7503 70.2306 24.4395 70.2306 24.1154C70.2306 23.7913 70.1018 23.4805 69.8726 23.2513C69.6434 23.0222 69.3326 22.8934 69.0085 22.8934L69.01 22.8939Z" fill="#575756"/>
<path d="M80.6597 12.4941C80.5299 12.3997 80.3828 12.3317 80.2268 12.2942C80.0707 12.2566 79.9088 12.2502 79.7503 12.2752C79.5917 12.3003 79.4397 12.3563 79.3028 12.4401C79.166 12.5239 79.0469 12.6339 78.9526 12.7637L75.0082 18.186L71.0638 12.7637C70.8732 12.5016 70.5863 12.3259 70.2663 12.2753C69.9462 12.2246 69.619 12.3033 69.3569 12.4938C69.0948 12.6844 68.9191 12.9713 68.8685 13.2913C68.8179 13.6114 68.8965 13.9385 69.0871 14.2007L73.7839 20.661V24.1126C73.7839 24.4367 73.9126 24.7476 74.1418 24.9767C74.371 25.2059 74.6818 25.3347 75.0059 25.3347C75.33 25.3347 75.6408 25.2059 75.87 24.9767C76.0992 24.7476 76.228 24.4367 76.228 24.1126V20.661L80.9248 14.2007C81.1157 13.9391 81.195 13.6125 81.1453 13.2925C81.0956 12.9726 80.9209 12.6854 80.6597 12.4941Z" fill="#575756"/>
<path d="M87.9252 14.5287C89.0371 14.5265 90.1062 14.9574 90.9059 15.73C91.1395 15.9547 91.4527 16.0775 91.7768 16.0712C92.1008 16.065 92.4091 15.9303 92.6338 15.6968C92.8585 15.4633 92.9812 15.1501 92.975 14.826C92.9688 14.502 92.8341 14.1937 92.6006 13.969C91.6501 13.0545 90.4522 12.4388 89.1554 12.1981C87.8585 11.9575 86.5195 12.1025 85.3042 12.6151C84.0889 13.1278 83.0505 13.9856 82.3178 15.0824C81.5851 16.1791 81.1901 17.4667 81.1818 18.7857C81.1734 20.1047 81.552 21.3972 82.2708 22.5032C82.9896 23.6091 84.0169 24.48 85.2257 25.008C86.4344 25.536 87.7715 25.698 89.0713 25.4738C90.3711 25.2496 91.5766 24.6491 92.5386 23.7467C92.6556 23.6369 92.7499 23.5051 92.8159 23.3589C92.882 23.2127 92.9187 23.0549 92.9238 22.8945C92.9289 22.7341 92.9023 22.5743 92.8457 22.4242C92.789 22.2741 92.7033 22.1366 92.5935 22.0196C92.4838 21.9026 92.352 21.8084 92.2058 21.7423C92.0596 21.6762 91.9018 21.6396 91.7414 21.6345C91.581 21.6294 91.4213 21.6559 91.2711 21.7126C91.121 21.7692 90.9835 21.8549 90.8665 21.9647C90.2548 22.538 89.4889 22.9201 88.6629 23.0637C87.837 23.2074 86.987 23.1064 86.2177 22.7733C85.4483 22.4401 84.7932 21.8893 84.3329 21.1887C83.8726 20.488 83.6271 19.668 83.6267 18.8296C83.6277 17.6897 84.0808 16.5966 84.8866 15.7903C85.6925 14.984 86.7852 14.5303 87.9252 14.5287Z" fill="#255FD5"/>
<path d="M101.751 12.9451C101.754 12.9521 101.757 12.9601 101.76 12.9671C101.676 12.7873 101.549 12.6308 101.391 12.5113C101.378 12.5018 101.365 12.4923 101.351 12.4833C101.338 12.4743 101.314 12.4573 101.294 12.4453C101.274 12.4334 101.244 12.4164 101.22 12.4029L101.208 12.3959H101.203C101.17 12.3789 101.135 12.3635 101.099 12.3495L101.086 12.3445C101.016 12.3178 100.944 12.2977 100.87 12.2846L100.846 12.2806C100.814 12.2756 100.783 12.2716 100.75 12.2691H100.737C100.71 12.2671 100.681 12.2661 100.653 12.2661H100.633H100.606C100.296 12.2763 100.001 12.4062 99.7841 12.6286L99.7702 12.6431C99.7467 12.668 99.7237 12.693 99.7028 12.72L99.6912 12.7349C99.6722 12.7594 99.6543 12.7849 99.6373 12.8103L99.6213 12.8348C99.6029 12.8643 99.5853 12.8947 99.5714 12.9257L99.5675 12.9332L94.1675 23.5641C94.0949 23.7072 94.0512 23.8632 94.0388 24.0231C94.0264 24.1831 94.0457 24.344 94.0955 24.4965C94.1453 24.6491 94.2247 24.7903 94.329 24.9122C94.4334 25.034 94.5607 25.1341 94.7037 25.2068C94.8468 25.2794 95.0028 25.3232 95.1628 25.3356C95.3228 25.3479 95.4836 25.3287 95.6361 25.2789C95.7887 25.2291 95.9299 25.1497 96.0518 25.0454C96.1737 24.941 96.2738 24.8136 96.3464 24.6706L97.2033 22.9834H104.11L104.967 24.6706C105.039 24.8136 105.14 24.941 105.261 25.0454C105.383 25.1497 105.525 25.2291 105.677 25.2789C105.83 25.3287 105.99 25.3479 106.15 25.3356C106.31 25.3232 106.466 25.2794 106.61 25.2068C106.753 25.1341 106.88 25.034 106.984 24.9122C107.089 24.7903 107.168 24.6491 107.218 24.4965C107.268 24.344 107.287 24.1831 107.274 24.0231C107.262 23.8632 107.218 23.7072 107.146 23.5641L101.751 12.9451ZM101.801 13.06L101.81 13.0864C101.806 13.076 101.803 13.067 101.8 13.058L101.801 13.06ZM101.805 13.9013C101.805 13.9031 101.805 13.905 101.805 13.9068C101.805 13.9043 101.804 13.9018 101.804 13.8993L101.805 13.9013ZM102.868 20.5389H98.4441L100.656 16.1841L102.868 20.5389H102.868Z" fill="#255FD5"/>
<path d="M119.349 16.5926C119.348 15.4447 118.891 14.3442 118.08 13.5325C117.268 12.7208 116.168 12.2641 115.02 12.2627H109.901C109.741 12.2627 109.582 12.2943 109.434 12.3557C109.286 12.4171 109.151 12.5071 109.038 12.6205C108.924 12.734 108.834 12.8687 108.773 13.0169C108.711 13.1651 108.68 13.324 108.68 13.4845V24.1154C108.68 24.4395 108.809 24.7503 109.038 24.9795C109.267 25.2087 109.578 25.3374 109.902 25.3374C110.226 25.3374 110.537 25.2087 110.766 24.9795C110.995 24.7503 111.124 24.4395 111.124 24.1154V20.9199H114.114L117.159 24.8609C117.257 24.9888 117.379 25.0962 117.518 25.1769C117.658 25.2575 117.812 25.3098 117.971 25.3307C118.131 25.3516 118.293 25.3407 118.449 25.2987C118.604 25.2567 118.75 25.1844 118.877 25.0859C119.005 24.9874 119.111 24.8647 119.191 24.7249C119.271 24.585 119.323 24.4307 119.343 24.2709C119.363 24.1111 119.351 23.949 119.308 23.7937C119.265 23.6385 119.192 23.4933 119.093 23.3665L116.881 20.5055C117.619 20.1515 118.242 19.5965 118.678 18.9044C119.115 18.2122 119.348 17.4109 119.349 16.5926ZM115.02 18.4784H111.125V14.7067H115.02C115.52 14.7067 116 14.9054 116.353 15.2591C116.707 15.6127 116.906 16.0924 116.906 16.5926C116.906 17.0927 116.707 17.5724 116.353 17.9261C116 18.2797 115.52 18.4784 115.02 18.4784Z" fill="#255FD5"/>
<path d="M129.591 22.8936H123.727V20.0222H128.554C128.878 20.0222 129.189 19.8935 129.418 19.6643C129.647 19.4351 129.776 19.1243 129.776 18.8002C129.776 18.4761 129.647 18.1653 129.418 17.9361C129.189 17.7069 128.878 17.5782 128.554 17.5782H123.727V14.7067H129.592C129.917 14.7067 130.227 14.578 130.457 14.3488C130.686 14.1196 130.815 13.8088 130.815 13.4847C130.815 13.1606 130.686 12.8498 130.457 12.6206C130.227 12.3914 129.917 12.2627 129.592 12.2627H122.505C122.181 12.2627 121.87 12.3914 121.641 12.6205C121.412 12.8497 121.283 13.1604 121.283 13.4845V24.1154C121.283 24.2759 121.315 24.4348 121.376 24.5831C121.437 24.7314 121.527 24.8662 121.641 24.9796C121.754 25.0931 121.889 25.1831 122.037 25.2445C122.186 25.3058 122.345 25.3373 122.505 25.3372H129.592C129.917 25.3372 130.227 25.2084 130.457 24.9793C130.686 24.7501 130.815 24.4393 130.815 24.1152C130.815 23.7911 130.686 23.4802 130.457 23.2511C130.227 23.0219 129.917 22.8931 129.592 22.8931L129.591 22.8936Z" fill="#255FD5"/>
<path d="M27.3845 21.5727C26.7445 21.8837 26.0072 21.9281 25.3346 21.6959C24.6619 21.4637 24.1089 20.974 23.7971 20.3344L17.9364 9.09084L5.10954 36.1191C4.8916 36.5786 4.54765 36.9668 4.11773 37.2385C3.6878 37.5102 3.18956 37.6543 2.68097 37.6539C2.22831 37.6528 1.78327 37.5373 1.38714 37.3183C0.991002 37.0993 0.656606 36.7837 0.414971 36.4009C0.173336 36.0182 0.0322897 35.5806 0.0049185 35.1287C-0.0224527 34.6769 0.0647388 34.2255 0.258401 33.8163L15.4804 1.74573C15.6971 1.28909 16.0384 0.90292 16.465 0.631662C16.8915 0.360404 17.386 0.215077 17.8914 0.212402H17.9059C18.409 0.212413 18.902 0.353839 19.3286 0.620543C19.7551 0.887246 20.0982 1.26849 20.3185 1.72077L28.6243 17.9823C28.7787 18.2994 28.8691 18.6439 28.8904 18.996C28.9117 19.3481 28.8634 19.7009 28.7483 20.0343C28.6331 20.3677 28.4534 20.6752 28.2194 20.9392C27.9854 21.2031 27.7017 21.4184 27.3845 21.5727Z" fill="#255FD5"/>
<path d="M28.0909 13.0992C28.3997 13.2812 28.7418 13.3994 29.097 13.447C29.4522 13.4945 29.8134 13.4705 30.1592 13.3762C30.5049 13.2819 30.8284 13.1193 31.1103 12.898C31.3922 12.6767 31.6269 12.4012 31.8006 12.0877C31.9679 11.7881 32.1501 11.4885 32.3424 11.1964C33.2859 9.772 34.5008 8.54746 35.9178 7.59279C37.3347 6.63811 38.9259 5.97201 40.6004 5.63255C42.2749 5.29309 43.9999 5.28692 45.6768 5.61439C47.3537 5.94187 48.9496 6.59657 50.3733 7.54109C50.8055 7.85023 51.3225 8.01836 51.8538 8.02247C52.3851 8.02658 52.9048 7.86648 53.3416 7.56406C53.7122 7.31843 54.0164 6.98508 54.2272 6.5936C54.438 6.20213 54.5488 5.76465 54.5499 5.32004C54.5509 4.87543 54.4421 4.43745 54.2332 4.04499C54.0242 3.65254 53.7216 3.31777 53.3521 3.07042L53.3391 3.06193C51.3276 1.72777 49.073 0.803012 46.704 0.34049C44.335 -0.122032 41.8981 -0.113254 39.5325 0.366321C37.1669 0.845896 34.9189 1.78687 32.9171 3.13548C30.9153 4.4841 29.1988 6.21392 27.8657 8.22612C27.616 8.60408 27.3764 8.99503 27.1547 9.38897C26.7955 10.0072 26.6924 10.7414 26.8673 11.4347C27.0422 12.128 27.4814 12.7254 28.0909 13.0992Z" fill="#575756"/>
<path d="M28.092 23.8749C28.4008 23.693 28.7429 23.5747 29.0981 23.5272C29.4533 23.4796 29.8145 23.5037 30.1603 23.5979C30.506 23.6922 30.8295 23.8548 31.1114 24.0761C31.3933 24.2974 31.628 24.573 31.8017 24.8865C31.969 25.186 32.1512 25.4856 32.3435 25.7777C33.287 27.2021 34.5019 28.4267 35.9189 29.3813C37.3358 30.336 38.927 31.0021 40.6015 31.3416C42.276 31.681 44.001 31.6872 45.6779 31.3597C47.3548 31.0323 48.9507 30.3775 50.3744 29.433C50.8066 29.1239 51.3236 28.9558 51.8549 28.9516C52.3862 28.9475 52.9059 29.1076 53.3427 29.4101C53.7133 29.6557 54.0175 29.9891 54.2283 30.3805C54.4391 30.772 54.5499 31.2095 54.551 31.6541C54.552 32.0987 54.4432 32.5367 54.2343 32.9291C54.0253 33.3216 53.7227 33.6564 53.3532 33.9037L53.3402 33.9122C51.3287 35.2463 49.0741 36.1711 46.7051 36.6336C44.3361 37.0961 41.8992 37.0874 39.5336 36.6078C37.168 36.1282 34.92 35.1873 32.9182 33.8386C30.9164 32.49 29.1999 30.7602 27.8668 28.748C27.6171 28.37 27.3775 27.9791 27.1558 27.5851C26.7966 26.9669 26.6935 26.2327 26.8684 25.5394C27.0433 24.8461 27.4825 24.2487 28.092 23.8749Z" fill="#575756"/>
<path d="M16.9604 31.7362H7.81333C7.11044 31.742 6.43245 31.4762 5.9208 30.9942C5.40914 30.5123 5.10335 29.8514 5.06721 29.1494C5.05406 28.7888 5.11373 28.4292 5.24265 28.0922C5.37157 27.7552 5.56709 27.4476 5.81754 27.1878C6.06799 26.928 6.36823 26.7214 6.70033 26.5802C7.03243 26.4391 7.38957 26.3663 7.75041 26.3663H16.8975C17.6004 26.3605 18.2784 26.6263 18.79 27.1083C19.3017 27.5902 19.6074 28.2512 19.6436 28.9532C19.6567 29.3138 19.5971 29.6733 19.4682 30.0103C19.3392 30.3474 19.1437 30.655 18.8933 30.9147C18.6428 31.1745 18.3426 31.3811 18.0105 31.5223C17.6784 31.6634 17.3212 31.7362 16.9604 31.7362Z" fill="#255FD5"/>
</svg>
