<svg width="22" height="22" viewBox="0 0 22 22" fill="none" xmlns="http://www.w3.org/2000/svg">
<path d="M22 9.16667V12.8333C22 13.8445 21.1779 14.6667 20.1667 14.6667H19.6675C18.9664 18.8217 15.352 22 11 22C10.5947 22 10.2667 21.672 10.2667 21.2667C10.2667 20.8613 10.5947 20.5333 11 20.5333C15.0434 20.5333 18.3333 17.2434 18.3333 13.2V8.8C18.3333 4.75664 15.0434 1.46667 11 1.46667C6.95664 1.46667 3.66667 4.75664 3.66667 8.8V13.9333C3.66667 14.3387 3.33867 14.6667 2.93333 14.6667H1.83333C0.822135 14.6667 0 13.8445 0 12.8333V9.16667C0 8.15547 0.822135 7.33333 1.83333 7.33333H2.33249C3.03359 3.17826 6.64798 0 11 0C15.352 0 18.9664 3.17826 19.6675 7.33333H20.1667C21.1779 7.33333 22 8.15547 22 9.16667ZM11 2.93333C7.76517 2.93333 5.13333 5.56517 5.13333 8.8V12.4667C5.13333 15.7015 7.76517 18.3333 11 18.3333C14.2348 18.3333 16.8667 15.7015 16.8667 12.4667V8.8C16.8667 5.56517 14.2348 2.93333 11 2.93333Z" fill="#F2F2F2"/>
</svg>
